<svg width="130" height="130" viewBox="0 0 130 130" fill="none" xmlns="http://www.w3.org/2000/svg">
<g clip-path="url(#clip0_314_194)">
<path d="M40.0314 26.0544C38.9073 26.0544 37.9958 26.9656 37.9958 28.0899C37.9958 30.5592 35.9869 32.5681 33.5177 32.5681C31.0484 32.5681 29.0395 30.5592 29.0395 28.0899C29.0395 25.6207 31.0484 23.6118 33.5177 23.6118C34.6417 23.6118 35.5532 22.7005 35.5532 21.5762C35.5532 20.4519 34.6419 19.5406 33.5177 19.5406C28.8036 19.5406 24.9686 23.3759 24.9686 28.0897C24.9686 32.8034 28.8039 36.6387 33.5177 36.6387C38.2314 36.6387 42.0667 32.8034 42.0667 28.0897C42.0669 26.9656 41.1554 26.0544 40.0314 26.0544Z" fill="#F5CF73"/>
<path d="M40.0314 49.9373C38.9073 49.9373 37.9958 50.8486 37.9958 51.9729C37.9958 54.4421 35.9869 56.451 33.5177 56.451C31.0484 56.451 29.0395 54.4421 29.0395 51.9729C29.0395 49.5036 31.0484 47.4947 33.5177 47.4947C34.6417 47.4947 35.5532 46.5834 35.5532 45.4591C35.5532 44.3349 34.6419 43.4236 33.5177 43.4236C28.8036 43.4236 24.9686 47.2588 24.9686 51.9726C24.9686 56.6864 28.8039 60.5216 33.5177 60.5216C38.2314 60.5216 42.0667 56.6864 42.0667 51.9726C42.0669 50.8488 41.1554 49.9373 40.0314 49.9373Z" fill="#F5CF73"/>
<path d="M63.9143 54.2798H48.716C47.5919 54.2798 46.6804 55.1911 46.6804 56.3154C46.6804 57.4397 47.5917 58.351 48.716 58.351H63.9143C65.0383 58.351 65.9499 57.4397 65.9499 56.3154C65.9499 55.1911 65.0386 54.2798 63.9143 54.2798Z" fill="#F5CF73"/>
<path d="M63.9143 45.595H48.716C47.5919 45.595 46.6804 46.5062 46.6804 47.6305C46.6804 48.7548 47.5917 49.6661 48.716 49.6661H63.9143C65.0383 49.6661 65.9499 48.7548 65.9499 47.6305C65.9499 46.5062 65.0386 45.595 63.9143 45.595Z" fill="#F5CF73"/>
<path d="M59.572 78.1627H48.716C47.5919 78.1627 46.6804 79.074 46.6804 80.1983C46.6804 81.3226 47.5917 82.2339 48.716 82.2339H59.572C60.696 82.2339 61.6076 81.3226 61.6076 80.1983C61.6076 79.074 60.696 78.1627 59.572 78.1627Z" fill="#F5CF73"/>
<path d="M63.9143 69.4781H48.716C47.5919 69.4781 46.6804 70.3894 46.6804 71.5137C46.6804 72.638 47.5917 73.5493 48.716 73.5493H63.9143C65.0383 73.5493 65.9499 72.638 65.9499 71.5137C65.9499 70.3894 65.0386 69.4781 63.9143 69.4781Z" fill="#F5CF73"/>
<path d="M83.4552 30.3967H48.716C47.5919 30.3967 46.6804 31.3079 46.6804 32.4322C46.6804 33.5565 47.5917 34.4678 48.716 34.4678H83.4549C84.579 34.4678 85.4905 33.5565 85.4905 32.4322C85.4905 31.3079 84.5792 30.3967 83.4552 30.3967Z" fill="#F5CF73"/>
<path d="M74.7703 21.7118H48.716C47.5919 21.7118 46.6804 22.6231 46.6804 23.7474C46.6804 24.8717 47.5917 25.7829 48.716 25.7829H74.7703C75.8944 25.7829 76.8059 24.8717 76.8059 23.7474C76.8059 22.6231 75.8946 21.7118 74.7703 21.7118Z" fill="#F5CF73"/>
<path d="M40.0314 73.8205C38.9073 73.8205 37.9958 74.7317 37.9958 75.856C37.9958 78.3253 35.9869 80.3342 33.5177 80.3342C31.0484 80.3342 29.0395 78.3253 29.0395 75.856C29.0395 73.3868 31.0484 71.3779 33.5177 71.3779C34.6417 71.3779 35.5532 70.4666 35.5532 69.3423C35.5532 68.218 34.6419 67.3068 33.5177 67.3068C28.8036 67.3068 24.9686 71.142 24.9686 75.8558C24.9686 80.5696 28.8039 84.4048 33.5177 84.4048C38.2314 84.4048 42.0667 80.5696 42.0667 75.8558C42.0669 74.7317 41.1554 73.8205 40.0314 73.8205Z" fill="#F5CF73"/>
<path d="M92.1397 0H18.3193C14.8027 0 11.9414 2.86102 11.9414 6.37787V97.5678C11.9414 101.085 14.8024 103.946 18.3193 103.946H55.2296C56.3537 103.946 57.2652 103.034 57.2652 101.91C57.2652 100.786 56.3539 99.8745 55.2296 99.8745H18.3193C17.0472 99.8745 16.0123 98.8396 16.0123 97.5675V6.37787C16.0123 5.1058 17.0472 4.07088 18.3193 4.07088H92.1397C93.4118 4.07088 94.4467 5.1058 94.4467 6.37787V73.6851C94.4467 74.8092 95.358 75.7207 96.4823 75.7207C97.6063 75.7207 98.5179 74.8094 98.5179 73.6851V6.37787C98.5176 2.86102 95.6566 0 92.1397 0Z" fill="#F5CF73"/>
<path d="M111.358 82.5434C109.466 82.3548 107.575 82.891 106.078 84.0272C104.886 82.027 102.854 80.6079 100.502 80.3723C98.6093 80.1839 96.7187 80.7201 95.2224 81.8561C94.0303 79.8558 91.9976 78.4367 89.6456 78.2011C88.2009 78.0569 86.7582 78.3352 85.4905 78.9803V53.0585C85.4905 50.9539 84.5952 48.9364 83.0334 47.5234C81.4732 46.1117 79.3706 45.4226 77.2644 45.6333C73.5069 46.0096 70.5636 49.4071 70.5636 53.3683V79.3556L64.58 85.3392C61.4003 88.5188 60.1168 93.0302 61.1469 97.4076L65.6896 116.714C67.5302 124.537 74.4285 130.001 82.4652 130.001H100.824C110.327 130.001 118.058 122.27 118.058 112.767V90.2789C118.059 86.3172 115.115 82.9197 111.358 82.5434ZM113.987 112.766C113.987 120.024 108.083 125.929 100.825 125.929H82.4654C76.3272 125.929 71.0582 121.756 69.6523 115.781L65.1097 96.4745C64.4048 93.4797 65.2831 90.3927 67.4586 88.2172L70.5636 85.1122V92.1398C70.5636 93.2638 71.4748 94.1754 72.5991 94.1754C73.7234 94.1754 74.6347 93.2641 74.6347 92.1398V53.3681C74.6347 51.4726 75.968 49.8543 77.6704 49.6841C78.6482 49.5859 79.5833 49.8911 80.3024 50.5421C81.0126 51.1847 81.4198 52.1021 81.4198 53.0588V88.8834C81.4198 90.0075 82.3311 90.919 83.4554 90.919C84.5797 90.919 85.491 90.0077 85.491 88.8834V85.6266C85.491 84.6699 85.898 83.7525 86.6084 83.1099C87.328 82.4589 88.2626 82.1534 89.2404 82.2519C90.9426 82.4223 92.2761 84.0407 92.2761 85.9361V91.0541C92.2761 92.1781 93.1874 93.0897 94.3117 93.0897C95.4357 93.0897 96.3472 92.1784 96.3472 91.0541V87.7972C96.3472 86.8405 96.7542 85.9232 97.4647 85.2805C98.1842 84.6295 99.1191 84.3243 100.097 84.4226C101.799 84.5929 103.132 86.2113 103.132 88.1068V93.225C103.132 94.349 104.044 95.2606 105.168 95.2606C106.292 95.2606 107.204 94.3493 107.204 93.225V89.9681C107.204 89.0114 107.611 88.0941 108.321 87.4514C109.041 86.8007 109.975 86.4949 110.953 86.5937C112.655 86.7638 113.989 88.3822 113.989 90.2776V112.766H113.987Z" fill="#F5CF73"/>
</g>
<defs>
<clipPath id="clip0_314_194">
<rect width="130" height="130" fill="white"/>
</clipPath>
</defs>
</svg>
