<svg width="126" height="134" viewBox="0 0 126 134" fill="none" xmlns="http://www.w3.org/2000/svg">
<g clip-path="url(#clip0_307_10)">
<path d="M110.958 51.3761C110.586 38.1557 105.367 25.6087 96.4078 16.3965C87.4483 7.18422 75.4533 2.03149 62.967 2.03125C50.4807 2.03101 38.4854 7.18328 29.5257 16.3952C20.5659 25.6071 15.3464 38.1539 14.9744 51.3742C5.89083 53.4613 0.781982 62.1117 0.781982 75.8158C0.781982 91.6605 7.61138 100.749 19.5179 100.749C20.7871 100.749 22.0047 100.217 22.9048 99.2695C23.8049 98.3216 24.3143 97.035 24.3218 95.6906L24.5611 52.9171C24.561 47.5687 25.5558 42.2727 27.4888 37.3317C29.4218 32.3907 32.255 27.9016 35.8266 24.121C39.3981 20.3403 43.638 17.3423 48.3039 15.2981C52.9698 13.2539 57.9702 12.2037 63.0194 12.2074C68.0686 12.2112 73.0677 13.2688 77.7308 15.3199C82.394 17.3711 86.6299 20.3754 90.1964 24.1614C93.7629 27.9473 96.5902 32.4406 98.5167 37.3845C100.443 42.3283 101.431 47.6258 101.424 52.9743L101.905 98.2051C101.905 109.358 91.7423 115.317 71.7088 115.952C70.5129 113.887 68.6993 112.305 66.5567 111.458C64.414 110.612 62.0655 110.548 59.8849 111.279C57.7044 112.009 55.8173 113.491 54.524 115.489C53.2306 117.487 52.6055 119.886 52.748 122.304C52.8906 124.722 53.7926 127.019 55.3106 128.831C56.8285 130.643 58.8751 131.865 61.1244 132.303C63.3738 132.74 65.6967 132.368 67.7232 131.245C69.7498 130.122 71.3635 128.314 72.3075 126.107C102.845 124.999 110.698 111.951 111.445 100.126C120.247 97.8512 125.204 89.2716 125.204 75.8158C125.204 62.0881 120.07 53.4447 110.958 51.3761Z" fill="#EB9D40"/>
<path d="M54.9714 72.0453C54.5626 70.5469 54.5352 68.9606 54.8919 67.4474C55.2486 65.9341 55.9768 64.5476 57.0026 63.4287C58.0284 62.3097 59.3154 61.498 60.7329 61.0759C62.1505 60.6538 63.6482 60.6364 65.0742 61.0253C66.5001 61.4142 67.8037 62.1956 68.8525 63.2904C69.9013 64.3852 70.6582 65.7543 71.0463 67.2588C71.4344 68.7634 71.44 70.35 71.0624 71.8576C70.6848 73.3652 69.9376 74.7402 68.8964 75.8432L59.9911 85.2774V101.507C59.9911 102.351 60.3075 103.16 60.8705 103.756C61.4336 104.353 62.1973 104.688 62.9936 104.688C63.7899 104.688 64.5536 104.353 65.1166 103.756C65.6797 103.16 65.996 102.351 65.996 101.507V87.9112L73.1421 80.3404C74.9316 78.4444 76.2159 76.0809 76.8648 73.4895C77.5138 70.8982 77.5043 68.1711 76.8373 65.5849C76.1703 62.9987 74.8696 60.6453 73.067 58.7633C71.2644 56.8813 69.0241 55.5377 66.5731 54.8687C64.1222 54.1998 61.5478 54.2292 59.1111 54.954C56.6743 55.6789 54.4619 57.0734 52.6981 58.9961C50.9342 60.9188 49.6817 63.3014 49.0676 65.9023C48.4535 68.5032 48.4995 71.2298 49.2011 73.8057C49.3099 74.2075 49.4923 74.5827 49.738 74.9097C49.9837 75.2368 50.2879 75.5093 50.6331 75.7118C50.9784 75.9142 51.3579 76.0426 51.75 76.0896C52.1421 76.1365 52.5391 76.1011 52.9183 75.9855C53.2975 75.8698 53.6514 75.6761 53.9598 75.4154C54.2683 75.1547 54.5252 74.8322 54.7159 74.4662C54.9066 74.1003 55.0273 73.6981 55.0712 73.2827C55.115 72.8673 55.0811 72.4469 54.9715 72.0453H54.9714Z" fill="#EB9D40"/>
</g>
<defs>
<clipPath id="clip0_307_10">
<rect width="125.37" height="132.799" fill="white" transform="translate(0.308105 0.856567)"/>
</clipPath>
</defs>
</svg>
