<svg width="124" height="131" viewBox="0 0 124 131" fill="none" xmlns="http://www.w3.org/2000/svg">
<path d="M82.1597 70.9482L80.9354 70.2329C80.5826 70.0389 80.294 69.7357 80.108 69.3635C79.9221 68.9913 79.8477 68.568 79.8947 68.1498C80.1166 66.5251 80.1166 64.8749 79.8947 63.2501C79.8477 62.832 79.9221 62.4086 80.108 62.0365C80.294 61.6643 80.5826 61.361 80.9354 61.167L82.1597 60.4517C82.3966 60.3187 82.6053 60.1359 82.7732 59.9145C82.9411 59.6931 83.0647 59.4378 83.1363 59.1641C83.2079 58.8904 83.2261 58.6042 83.1897 58.3228C83.1534 58.0415 83.0633 57.7709 82.9249 57.5277L79.5447 51.5824C79.2491 51.0853 78.7848 50.7271 78.2475 50.5816C77.7101 50.4361 77.1406 50.5143 76.656 50.8002L75.4183 51.5155C75.0403 51.7281 74.6129 51.822 74.1862 51.7861C73.7596 51.7502 73.3515 51.586 73.0099 51.3129C71.7905 50.3665 70.4641 49.5857 69.0614 48.9886C68.6681 48.8403 68.3261 48.5696 68.0804 48.2121C67.8346 47.8545 67.6965 47.4267 67.6841 46.9846V45.5499C67.6776 45.262 67.6177 44.9782 67.5077 44.7148C67.3976 44.4514 67.2397 44.2135 67.0428 44.0148C66.846 43.8161 66.6141 43.6604 66.3605 43.5566C66.1068 43.4529 65.8363 43.4031 65.5645 43.4101H58.7849C58.2368 43.3976 57.7065 43.6158 57.3102 44.017C56.9139 44.4181 56.684 44.9694 56.671 45.5499V46.9846C56.6586 47.4267 56.5205 47.8545 56.2747 48.2121C56.029 48.5696 55.687 48.8403 55.2936 48.9886C53.889 49.5852 52.5606 50.366 51.3395 51.3129C50.9979 51.586 50.5898 51.7502 50.1632 51.7861C49.7365 51.822 49.309 51.7281 48.931 51.5155L47.6933 50.7921C47.2088 50.5062 46.6392 50.428 46.1019 50.5735C45.5645 50.719 45.1003 51.0771 44.8047 51.5743L41.4149 57.5196C41.2769 57.7634 41.1873 58.0345 41.1516 58.3163C41.116 58.5981 41.135 58.8847 41.2075 59.1584C41.2801 59.4321 41.4046 59.6873 41.5734 59.9083C41.7423 60.1293 41.952 60.3115 42.1897 60.4436L43.414 61.1589C43.7668 61.3529 44.0554 61.6562 44.2413 62.0284C44.4273 62.4005 44.5017 62.8239 44.4546 63.242C44.2327 64.8668 44.2327 66.517 44.4546 68.1417C44.5017 68.5599 44.4273 68.9832 44.2413 69.3554C44.0554 69.7276 43.7668 70.0308 43.414 70.2248L42.1897 70.9401C41.952 71.0723 41.7423 71.2544 41.5734 71.4754C41.4046 71.6964 41.2801 71.9516 41.2075 72.2253C41.135 72.4991 41.116 72.7856 41.1516 73.0674C41.1873 73.3492 41.2769 73.6203 41.4149 73.8642L44.8047 79.8095C45.1003 80.3066 45.5645 80.6648 46.1019 80.8103C46.6392 80.9558 47.2088 80.8775 47.6933 80.5917L48.931 79.8845C49.309 79.6719 49.7365 79.578 50.1632 79.6139C50.5898 79.6498 50.9979 79.8139 51.3395 80.0871C52.5588 81.0335 53.8853 81.8143 55.2879 82.4113C55.6813 82.5597 56.0232 82.8303 56.269 83.1879C56.5147 83.5455 56.6528 83.9733 56.6653 84.4154V85.8501C56.6717 86.138 56.7317 86.4218 56.8417 86.6852C56.9517 86.9486 57.1097 87.1864 57.3065 87.3852C57.5033 87.5839 57.7352 87.7396 57.9889 87.8433C58.2425 87.9471 58.513 87.9969 58.7849 87.9899H65.5645C66.1125 88.0024 66.6428 87.7841 67.0391 87.383C67.4354 86.9818 67.6653 86.4305 67.6784 85.8501V84.4154C67.6908 83.9733 67.8289 83.5455 68.0746 83.1879C68.3204 82.8303 68.6623 82.5597 69.0557 82.4113C70.4603 81.8148 71.7887 81.0339 73.0099 80.0871C73.3515 79.8139 73.7596 79.6498 74.1862 79.6139C74.6129 79.578 75.0403 79.6719 75.4183 79.8845L76.656 80.6079C77.1406 80.8937 77.7101 80.972 78.2475 80.8265C78.7848 80.681 79.2491 80.3228 79.5447 79.8257L82.9345 73.8804C83.0737 73.6362 83.1643 73.3644 83.2007 73.0818C83.237 72.7991 83.2183 72.5115 83.1457 72.2368C83.0731 71.9621 82.9482 71.7061 82.7786 71.4844C82.609 71.2628 82.3984 71.0803 82.1597 70.9482ZM62.1747 74.8186C60.4721 74.8186 58.8077 74.2838 57.3921 73.2818C55.9764 72.2798 54.873 70.8557 54.2215 69.1895C53.5699 67.5233 53.3995 65.6899 53.7316 63.921C54.0638 62.1522 54.8837 60.5274 56.0876 59.2522C57.2915 57.9769 58.8254 57.1084 60.4952 56.7566C62.1651 56.4047 63.896 56.5853 65.469 57.2755C67.042 57.9657 68.3864 59.1344 69.3323 60.634C70.2783 62.1335 70.7831 63.8965 70.7831 65.7C70.7831 68.1184 69.8762 70.4377 68.2618 72.1478C66.6474 73.8579 64.4578 74.8186 62.1747 74.8186Z" fill="#EB9D40"/>
<path d="M21.0454 114.332C24.2149 114.332 26.7844 111.611 26.7844 108.253C26.7844 104.896 24.2149 102.174 21.0454 102.174C17.8758 102.174 15.3064 104.896 15.3064 108.253C15.3064 111.611 17.8758 114.332 21.0454 114.332Z" fill="#EB9D40"/>
<path d="M103.304 29.2255C106.474 29.2255 109.043 26.5038 109.043 23.1464C109.043 19.7891 106.474 17.0674 103.304 17.0674C100.134 17.0674 97.5651 19.7891 97.5651 23.1464C97.5651 26.5038 100.134 29.2255 103.304 29.2255Z" fill="#EB9D40"/>
<path d="M34.4364 41.3837C37.6059 41.3837 40.1753 38.662 40.1753 35.3047C40.1753 31.9473 37.6059 29.2256 34.4364 29.2256C31.2668 29.2256 28.6974 31.9473 28.6974 35.3047C28.6974 38.662 31.2668 41.3837 34.4364 41.3837Z" fill="#EB9D40"/>
<path d="M89.9132 102.174C93.0827 102.174 95.6521 99.4526 95.6521 96.0952C95.6521 92.7378 93.0827 90.0161 89.9132 90.0161C86.7436 90.0161 84.1742 92.7378 84.1742 96.0952C84.1742 99.4526 86.7436 102.174 89.9132 102.174Z" fill="#EB9D40"/>
<path d="M74.4944 81.6493L75.7322 82.3748C76.651 82.9077 77.7276 83.0481 78.741 82.767C79.7544 82.4859 80.6279 81.8047 81.1823 80.8631L84.5721 74.9218C84.8432 74.4514 85.0208 73.9274 85.0941 73.3818C85.1675 72.8362 85.135 72.2804 84.9987 71.7486C84.8617 71.2042 84.6214 70.695 84.2925 70.2522C83.9636 69.8094 83.553 69.4422 83.0857 69.1731L81.7887 68.4395C81.9122 67.5322 81.9743 66.6166 81.9743 65.6999C81.9743 64.7921 81.9111 63.8762 81.8595 62.942L83.0857 62.2247C83.553 61.956 83.9636 61.5893 84.2926 61.1468C84.6215 60.7043 84.8618 60.1954 84.9987 59.6512C85.1347 59.1197 85.1671 58.5643 85.0937 58.0191C85.0204 57.4738 84.8429 56.9501 84.5721 56.48L81.1823 50.5347C80.627 49.5942 79.7534 48.914 78.7402 48.6334C77.7271 48.3528 76.651 48.4929 75.7322 49.025L74.4964 49.7484C74.4365 49.7709 74.3722 49.7763 74.3098 49.7642C74.2474 49.7521 74.189 49.7229 74.1406 49.6795C72.7898 48.6309 71.3199 47.7663 69.7655 47.1061C69.6991 47.081 69.6394 47.0393 69.5914 46.9845V45.5519C69.5778 44.434 69.1463 43.3674 68.3914 42.5861C67.6366 41.8047 66.62 41.3723 65.5646 41.3836H58.785C57.7296 41.3723 56.713 41.8047 55.9581 42.5861C55.2033 43.3674 54.7717 44.434 54.7581 45.5519V46.9703C54.7137 47.0355 54.6506 47.0838 54.5783 47.1081C53.0236 47.7676 51.5537 48.6323 50.2033 49.6816C50.1555 49.7248 50.0978 49.7539 50.036 49.766C49.9742 49.7781 49.9105 49.7727 49.8513 49.7505L48.6136 49.025C47.6946 48.4925 46.6182 48.3525 45.6049 48.6335C44.5916 48.9146 43.7181 49.5955 43.1635 50.5367L39.7736 56.478C39.5026 56.9484 39.3249 57.4724 39.2516 58.018C39.1782 58.5636 39.2107 59.1194 39.347 59.6512C39.4841 60.1956 39.7243 60.7048 40.0532 61.1476C40.3821 61.5904 40.7928 61.9576 41.26 62.2267L42.557 62.9603C42.4348 63.8677 42.374 64.7833 42.3753 65.6999C42.3753 66.6077 42.4384 67.5236 42.4901 68.4578L41.2639 69.1751C40.7966 69.4437 40.3859 69.8105 40.057 70.253C39.7281 70.6955 39.4878 71.2044 39.3509 71.7486C39.2148 72.2801 39.1825 72.8355 39.2558 73.3807C39.3292 73.926 39.5067 74.4497 39.7775 74.9198L43.1673 80.8651C43.7223 81.806 44.5959 82.4865 45.6091 82.7671C46.6224 83.0478 47.6987 82.9074 48.6174 82.3748L49.8532 81.6514C49.9128 81.6277 49.9774 81.6216 50.0401 81.6337C50.1028 81.6458 50.1611 81.6757 50.209 81.7202C51.5598 82.7689 53.0297 83.6335 54.584 84.2937C54.6504 84.3188 54.7102 84.3605 54.7581 84.4153V85.8479C54.7717 86.9658 55.2033 88.0324 55.9581 88.8137C56.713 89.5951 57.7296 90.0275 58.785 90.0161H65.5646C66.62 90.0275 67.6366 89.5951 68.3914 88.8137C69.1463 88.0324 69.5778 86.9658 69.5914 85.8479V84.4295C69.6359 84.3643 69.6989 84.316 69.7713 84.2917C71.326 83.6321 72.7959 82.7675 74.1463 81.7182C74.1937 81.6757 74.2507 81.647 74.3118 81.6349C74.3728 81.6229 74.4358 81.6278 74.4944 81.6493ZM71.8813 78.4517C70.7901 79.2978 69.6031 79.9956 68.348 80.5288C67.5987 80.8267 66.9516 81.3569 66.4909 82.0502C66.0302 82.7434 65.7774 83.5676 65.7655 84.4153V85.8479C65.7655 85.8824 65.6947 85.9634 65.5646 85.9634H58.785C58.6549 85.9634 58.5841 85.8824 58.5841 85.8479V84.4153C58.5723 83.5684 58.32 82.7449 57.86 82.052C57.4001 81.3591 56.7538 80.829 56.0054 80.5308C54.7498 79.9973 53.5622 79.2996 52.4702 78.4538C51.7425 77.8854 50.8625 77.578 49.9584 77.5764C49.2757 77.5733 48.6035 77.7546 48.0052 78.1032L46.7675 78.8286C46.7149 78.8587 46.6543 78.8692 46.5954 78.8586C46.5364 78.8479 46.4826 78.8167 46.4423 78.7699L43.1118 72.7232L44.3419 72.0059C45.0365 71.6152 45.6013 71.0082 45.9601 70.2669C46.319 69.5256 46.4545 68.6855 46.3486 67.86C46.1522 66.4268 46.1522 64.971 46.3486 63.5378C46.4543 62.7116 46.318 61.8709 45.9581 61.1295C45.5982 60.388 45.032 59.7815 44.3361 59.3919L43.0525 58.5813L46.4423 52.64C46.4815 52.5916 46.5354 52.5591 46.5947 52.548C46.654 52.5369 46.7151 52.5479 46.7675 52.5792L48.0072 53.3067C48.7057 53.702 49.4959 53.8788 50.2857 53.8168C51.0755 53.7547 51.8324 53.4563 52.4683 52.9562C53.5594 52.1101 54.7465 51.4123 56.0016 50.8791C56.7508 50.5812 57.398 50.051 57.8587 49.3577C58.3193 48.6645 58.5721 47.8403 58.5841 46.9926V45.56C58.5841 45.5255 58.6549 45.4445 58.785 45.4445H65.5646C65.6947 45.4445 65.7655 45.5255 65.7655 45.56V46.9926C65.7773 47.8395 66.0296 48.663 66.4895 49.3559C66.9495 50.0488 67.5958 50.5789 68.3442 50.8771C69.5998 51.4105 70.7874 52.1083 71.8794 52.9541C72.5146 53.4575 73.2724 53.758 74.0635 53.8201C74.8546 53.8823 75.646 53.7034 76.3443 53.3047L77.582 52.5792C77.6347 52.5495 77.6952 52.5392 77.7541 52.5498C77.813 52.5605 77.8668 52.5915 77.9072 52.638L81.2378 58.6847L80.0077 59.402C79.3131 59.7927 78.7483 60.3997 78.3894 61.141C78.0306 61.8823 77.895 62.7224 78.001 63.5479C78.1974 64.9811 78.1974 66.4369 78.001 67.8701C77.8952 68.6963 78.0316 69.537 78.3915 70.2784C78.7514 71.0199 79.3176 71.6264 80.0134 72.016L81.2971 72.8266L77.9072 78.7679C77.8678 78.816 77.814 78.8483 77.7548 78.8593C77.6956 78.8704 77.6346 78.8596 77.582 78.8286L76.3424 78.1012C75.6442 77.7045 74.8538 77.5268 74.0637 77.5889C73.2736 77.651 72.5166 77.9503 71.8813 78.4517Z" fill="#EB9D40"/>
<path d="M62.1748 54.5549C60.0938 54.5549 58.0596 55.2086 56.3294 56.4332C54.5991 57.6578 53.2506 59.3984 52.4542 61.4349C51.6579 63.4714 51.4495 65.7122 51.8555 67.8742C52.2615 70.0361 53.2635 72.0219 54.735 73.5806C56.2064 75.1392 58.0812 76.2007 60.1222 76.6307C62.1631 77.0607 64.2786 76.84 66.2012 75.9965C68.1237 75.1529 69.7669 73.7245 70.9231 71.8917C72.0792 70.0589 72.6962 67.9041 72.6962 65.6999C72.6932 62.745 71.5837 59.9122 69.6112 57.8228C67.6387 55.7334 64.9643 54.5581 62.1748 54.5549ZM62.1748 72.7921C60.8505 72.7921 59.556 72.3762 58.455 71.5969C57.3539 70.8176 56.4957 69.7099 55.989 68.414C55.4822 67.118 55.3496 65.692 55.608 64.3163C55.8663 62.9405 56.504 61.6768 57.4404 60.6849C58.3767 59.693 59.5698 59.0176 60.8686 58.7439C62.1674 58.4703 63.5136 58.6107 64.737 59.1475C65.9605 59.6843 67.0062 60.5933 67.7419 61.7596C68.4776 62.926 68.8703 64.2972 68.8703 65.6999C68.8703 67.5809 68.1648 69.3848 66.9092 70.7149C65.6536 72.0449 63.9505 72.7921 62.1748 72.7921Z" fill="#EB9D40"/>
<path d="M13.3934 108.253C13.3934 109.856 13.8422 111.424 14.683 112.757C15.5238 114.089 16.7189 115.128 18.1171 115.742C19.5153 116.355 21.0539 116.516 22.5382 116.203C24.0226 115.89 25.386 115.118 26.4562 113.985C27.5263 112.851 28.2551 111.407 28.5503 109.835C28.8456 108.262 28.694 106.633 28.1149 105.152C27.5357 103.671 26.555 102.405 25.2966 101.514C24.0382 100.623 22.5588 100.148 21.0454 100.148C19.9356 100.153 18.8404 100.417 17.8373 100.92C10.5768 90.7925 6.66254 78.4166 6.69795 65.7C6.70136 55.9436 8.9971 46.3415 13.3782 37.7594C17.7593 29.1774 24.0879 21.8853 31.7935 16.5407C39.4991 11.196 48.3393 7.96689 57.5171 7.1444C66.6949 6.3219 75.9217 7.93193 84.3654 11.8293L85.8958 8.11703C76.87 3.95 67.0069 2.22819 57.1961 3.10684C47.3852 3.98549 37.9351 7.43698 29.6979 13.1501C21.4607 18.8632 14.6954 26.6582 10.0123 35.8322C5.32908 45.0062 2.87522 55.2706 2.87197 65.7C2.83339 79.3562 7.05546 92.6433 14.8817 103.496C13.9185 104.872 13.3969 106.54 13.3934 108.253ZM21.0454 104.201C21.8021 104.201 22.5418 104.438 23.171 104.884C23.8002 105.329 24.2906 105.962 24.5801 106.702C24.8697 107.443 24.9455 108.258 24.7979 109.044C24.6502 109.83 24.2858 110.552 23.7508 111.119C23.2157 111.686 22.534 112.072 21.7918 112.228C21.0496 112.385 20.2804 112.304 19.5813 111.998C18.8821 111.691 18.2846 111.171 17.8642 110.505C17.4438 109.839 17.2194 109.055 17.2194 108.253C17.2194 107.179 17.6225 106.148 18.34 105.388C19.0575 104.628 20.0307 104.201 21.0454 104.201Z" fill="#EB9D40"/>
<path d="M110.956 23.1464C110.956 21.5433 110.507 19.9762 109.666 18.6433C108.826 17.3104 107.631 16.2715 106.232 15.658C104.834 15.0445 103.296 14.884 101.811 15.1968C100.327 15.5095 98.9634 16.2815 97.8933 17.415C96.8231 18.5486 96.0944 19.9929 95.7991 21.5651C95.5039 23.1374 95.6554 24.7672 96.2345 26.2482C96.8137 27.7293 97.7945 28.9952 99.0528 29.8858C100.311 30.7765 101.791 31.2519 103.304 31.2519C104.414 31.2465 105.509 30.9829 106.512 30.4798C113.773 40.6073 117.687 52.9833 117.651 65.6999C117.648 75.4563 115.352 85.0584 110.971 93.6404C106.59 102.222 100.262 109.515 92.5559 114.859C84.8503 120.204 76.0101 123.433 66.8323 124.255C57.6545 125.078 48.4278 123.468 39.984 119.571L38.4536 123.283C47.4794 127.45 57.3425 129.172 67.1534 128.293C76.9642 127.414 86.4143 123.963 94.6515 118.25C102.889 112.537 109.654 104.742 114.337 95.5677C119.02 86.3937 121.474 76.1292 121.477 65.6999C121.516 52.0436 117.294 38.7565 109.468 27.9043C110.431 26.5275 110.953 24.8601 110.956 23.1464ZM103.304 27.1991C102.547 27.1991 101.808 26.9615 101.178 26.5161C100.549 26.0708 100.059 25.4379 99.7693 24.6973C99.4797 23.9568 99.4039 23.1419 99.5516 22.3558C99.6992 21.5696 100.064 20.8475 100.599 20.2807C101.134 19.714 101.815 19.328 102.558 19.1716C103.3 19.0152 104.069 19.0955 104.768 19.4022C105.467 19.709 106.065 20.2284 106.485 20.8949C106.906 21.5613 107.13 22.3449 107.13 23.1464C107.13 24.2213 106.727 25.2521 106.009 26.0121C105.292 26.7722 104.319 27.1991 103.304 27.1991Z" fill="#EB9D40"/>
<path d="M62.1747 21.1201C58.7993 21.1183 55.4359 21.5449 52.1564 22.3906L53.0631 26.3279C58.6962 24.8728 64.5676 24.7915 70.2346 26.0902C75.9016 27.3889 81.2163 30.0335 85.7778 33.8248C90.3394 37.6161 94.0287 42.4549 96.5676 47.9765C99.1065 53.4981 100.429 59.5582 100.435 65.6999C100.454 74.0326 98.0188 82.1641 93.4674 88.9605C92.3758 88.3329 91.1551 87.9995 89.9131 87.9898C88.2011 87.9809 86.5353 88.5773 85.1795 89.6846C83.8237 90.7919 82.8555 92.3467 82.4283 94.1028C82.001 95.8589 82.1392 97.7157 82.8209 99.3792C83.5025 101.043 84.6888 102.418 86.1916 103.286C87.6944 104.155 89.4278 104.468 91.1174 104.175C92.8069 103.882 94.3558 103 95.5188 101.669C96.6817 100.338 97.3922 98.6346 97.5376 96.8277C97.683 95.0208 97.2551 93.2142 96.3216 91.694C101.502 84.1398 104.282 75.037 104.261 65.6999C104.248 53.8807 99.8098 42.5495 91.9199 34.1921C84.03 25.8346 73.3327 21.1335 62.1747 21.1201ZM89.9131 100.148C89.1564 100.148 88.4167 99.9103 87.7875 99.465C87.1583 99.0196 86.6679 98.3867 86.3784 97.6462C86.0888 96.9056 86.013 96.0908 86.1606 95.3046C86.3083 94.5185 86.6726 93.7963 87.2077 93.2296C87.7428 92.6628 88.4245 92.2768 89.1667 92.1204C89.9089 91.964 90.6781 92.0443 91.3772 92.351C92.0764 92.6578 92.6739 93.1772 93.0943 93.8437C93.5147 94.5101 93.7391 95.2937 93.7391 96.0953C93.7391 97.1701 93.336 98.2009 92.6185 98.961C91.901 99.721 90.9278 100.148 89.9131 100.148Z" fill="#EB9D40"/>
<path d="M62.1747 110.28C65.5501 110.281 68.9135 109.855 72.193 109.009L71.2863 105.072C65.6532 106.527 59.7818 106.608 54.1148 105.31C48.4478 104.011 43.1331 101.366 38.5716 97.575C34.0101 93.7837 30.3207 88.9449 27.7818 83.4233C25.2429 77.9017 23.9207 71.8416 23.9149 65.6999C23.895 57.3672 26.3306 49.2357 30.882 42.4393C31.9736 43.0669 33.1943 43.4003 34.4363 43.41C36.1483 43.4189 37.8141 42.8225 39.1699 41.7152C40.5257 40.6079 41.4939 39.0531 41.9212 37.297C42.3484 35.5409 42.2102 33.6841 41.5286 32.0206C40.8469 30.3571 39.6607 28.9821 38.1579 28.1135C36.6551 27.2448 34.9216 26.9322 33.2321 27.2251C31.5426 27.5181 29.9936 28.3998 28.8307 29.7306C27.6677 31.0614 26.9573 32.7652 26.8118 34.5721C26.6664 36.379 27.0943 38.1856 28.0278 39.7058C22.847 47.26 20.0669 56.3628 20.0889 65.6999C20.1015 77.5191 24.5396 88.8503 32.4295 97.2077C40.3194 105.565 51.0167 110.266 62.1747 110.28ZM34.4363 31.2518C35.193 31.2518 35.9327 31.4895 36.5619 31.9348C37.1911 32.3802 37.6815 33.0131 37.9711 33.7536C38.2606 34.4942 38.3364 35.309 38.1888 36.0952C38.0412 36.8813 37.6768 37.6035 37.1417 38.1702C36.6066 38.737 35.9249 39.123 35.1827 39.2794C34.4406 39.4358 33.6713 39.3555 32.9722 39.0488C32.2731 38.742 31.6755 38.2226 31.2551 37.5561C30.8347 36.8897 30.6103 36.1061 30.6103 35.3045C30.6103 34.2297 31.0134 33.1989 31.7309 32.4389C32.4484 31.6788 33.4216 31.2518 34.4363 31.2518Z" fill="#EB9D40"/>
</svg>
