<svg width="130" height="130" viewBox="0 0 130 130" fill="none" xmlns="http://www.w3.org/2000/svg">
<path d="M65 5C72.5 5 78.575 13.225 85.225 16.05C91.875 18.875 102.275 17.325 107.325 22.675C112.375 28.025 111.1 37.85 113.95 44.775C116.8 51.7 125 57.5 125 65C125 72.5 116.775 78.575 113.95 85.225C111.125 91.875 112.675 102.275 107.325 107.325C101.975 112.375 92.15 111.15 85.225 113.95C78.3 116.75 72.5 125 65 125C57.5 125 51.425 116.775 44.775 113.95C38.125 111.125 27.725 112.675 22.675 107.325C17.625 101.975 18.85 92.15 16.05 85.225C13.25 78.3 5 72.5 5 65C5 57.5 13.225 51.425 16.05 44.775C18.875 38.125 17.325 27.725 22.675 22.675C28.025 17.625 37.85 18.85 44.775 16.05C51.7 13.25 57.5 5 65 5ZM65 23.95C56.8811 23.95 48.9445 26.3575 42.1938 30.8682C35.4432 35.3788 30.1817 41.7899 27.0747 49.2908C23.9678 56.7917 23.1548 65.0455 24.7388 73.0085C26.3227 80.9714 30.2323 88.2858 35.9733 94.0267C41.7142 99.7677 49.0286 103.677 56.9915 105.261C64.9545 106.845 73.2082 106.032 80.7091 102.925C88.2101 99.8183 94.6212 94.5568 99.1318 87.8062C103.642 81.0555 106.05 73.1189 106.05 65C106.017 54.123 101.682 43.7009 93.9903 36.0097C86.2991 28.3185 75.877 23.983 65 23.95ZM84.05 46.825L88.075 50.625C88.4866 51.1682 88.7094 51.831 88.7094 52.5125C88.7094 53.194 88.4866 53.8568 88.075 54.4L62.7 82.675C62.1983 83.2438 61.5778 83.6954 60.8822 83.9978C60.1867 84.3002 59.4331 84.4461 58.675 84.425C57.9206 84.4208 57.1749 84.2635 56.483 83.9627C55.7912 83.6619 55.1676 83.2238 54.65 82.675L40.925 69C40.6736 68.7846 40.4675 68.5213 40.3186 68.2256C40.1698 67.9299 40.0812 67.6075 40.0579 67.2773C40.0346 66.947 40.0772 66.6154 40.1831 66.3017C40.2891 65.988 40.4563 65.6985 40.675 65.45L40.925 65.175L45 61.4C45.4908 60.8721 46.1692 60.558 46.8892 60.5252C47.6093 60.4925 48.3134 60.7438 48.85 61.225L49.025 61.4L58.75 71.4L80.225 46.9C80.7281 46.3934 81.4085 46.1024 82.1223 46.0884C82.8361 46.0744 83.5274 46.3385 84.05 46.825Z" fill="#F5CF73"/>
</svg>
