<svg width="124" height="131" viewBox="0 0 124 131" fill="none" xmlns="http://www.w3.org/2000/svg">
<path d="M93.4149 22.879C93.4331 22.9554 93.4748 23.0232 93.5335 23.0717C93.5922 23.1202 93.6645 23.1465 93.739 23.1465C93.8134 23.1465 93.8857 23.1202 93.9444 23.0717C94.0031 23.0232 94.0449 22.9554 94.0631 22.879C95.0647 18.6641 96.2028 17.4585 100.182 16.3974C100.254 16.3782 100.318 16.334 100.364 16.2718C100.41 16.2096 100.434 16.133 100.434 16.0542C100.434 15.9753 100.41 15.8988 100.364 15.8366C100.318 15.7744 100.254 15.7302 100.182 15.7109C96.2029 14.6499 95.0647 13.4443 94.0631 9.22944C94.0449 9.15298 94.0031 9.08515 93.9444 9.03669C93.8857 8.98823 93.8134 8.96191 93.739 8.96191C93.6645 8.96191 93.5922 8.98823 93.5335 9.03669C93.4748 9.08515 93.4331 9.15298 93.4149 9.22944C92.4133 13.4443 91.275 14.6499 87.296 15.7109C87.2238 15.7301 87.1598 15.7744 87.1141 15.8365C87.0683 15.8987 87.0435 15.9753 87.0435 16.0541C87.0435 16.133 87.0683 16.2096 87.1141 16.2717C87.1598 16.3339 87.2238 16.3781 87.296 16.3974C91.275 17.4583 92.4133 18.6641 93.4149 22.879Z" fill="#EB9D40"/>
<path d="M86.7334 71.7789H37.6159C36.0121 71.781 34.4747 72.4567 33.3406 73.6579C32.2066 74.8591 31.5687 76.4877 31.5668 78.1865V118.057C31.5687 119.755 32.2066 121.384 33.3406 122.585C34.4747 123.786 36.0121 124.462 37.6159 124.464H86.7334C88.3372 124.462 89.8746 123.786 91.0087 122.585C92.1427 121.384 92.7806 119.755 92.7825 118.057V78.1865C92.7806 76.4877 92.1427 74.8591 91.0087 73.6579C89.8746 72.4567 88.3372 71.781 86.7334 71.7789ZM88.9565 88.0217V118.057C88.9558 118.681 88.7213 119.279 88.3046 119.721C87.8878 120.162 87.3228 120.411 86.7334 120.411H37.6159C37.0265 120.411 36.4615 120.162 36.0447 119.721C35.628 119.279 35.3935 118.681 35.3928 118.057V78.1865C35.3935 77.5622 35.628 76.9637 36.0447 76.5223C36.4615 76.0808 37.0265 75.8325 37.6159 75.8316H86.7334C87.3228 75.8325 87.8878 76.0808 88.3046 76.5223C88.7213 76.9637 88.9558 77.5622 88.9565 78.1865V88.0217Z" fill="#EB9D40"/>
<path d="M104.26 36.3177C104.251 32.1129 103.286 27.9722 101.447 24.2457L98.0432 26.0998C99.6031 29.253 100.423 32.7578 100.434 36.3177C100.434 52.5187 83.2717 65.6999 62.1746 65.6999C41.0775 65.6999 23.9147 52.5187 23.9147 36.3177C23.9147 20.1168 41.0775 6.93557 62.1746 6.93557C69.8347 6.86058 77.4021 8.71314 84.2543 12.3408L86.0066 8.73732C78.6122 4.81487 70.4441 2.80835 62.1746 2.88286C38.9683 2.88286 20.0887 17.8817 20.0887 36.3177C20.0887 54.7538 38.9683 69.7526 62.1746 69.7526C85.3808 69.7526 104.26 54.7538 104.26 36.3177Z" fill="#EB9D40"/>
<path d="M29.6537 110.28C29.6537 108.13 28.8475 106.068 27.4125 104.548C25.9775 103.028 24.0312 102.174 22.0017 102.174H21.9426C23.5629 100.908 24.7645 99.1315 25.3761 97.0991C25.9877 95.0666 25.978 92.8816 25.3486 90.8553C24.7191 88.829 23.502 87.0648 21.8705 85.8142C20.2391 84.5636 18.2766 83.8903 16.2628 83.8903C14.2489 83.8903 12.2865 84.5636 10.655 85.8142C9.02358 87.0648 7.80641 88.829 7.17695 90.8553C6.5475 92.8816 6.53788 95.0666 7.14946 97.0991C7.76104 99.1315 8.96263 100.908 10.583 102.174H10.5238C6.29767 102.174 2.87183 105.803 2.87183 114.332V128.517H29.6537V110.28ZM16.2628 122.438L12.4368 116.359L15.7315 104.144C15.911 104.154 16.0809 104.201 16.2628 104.201C16.4447 104.201 16.6146 104.154 16.794 104.144L20.0888 116.359L16.2628 122.438ZM16.2628 100.148C14.7412 100.146 13.2824 99.5052 12.2065 98.3655C11.1306 97.2258 10.5255 95.6806 10.5238 94.0689C10.5302 93.377 10.6495 92.6915 10.8763 92.0426H21.6492C21.876 92.6915 21.9953 93.377 22.0017 94.0689C22.0001 95.6806 21.3949 97.2258 20.319 98.3655C19.2431 99.5052 17.7843 100.146 16.2628 100.148Z" fill="#EB9D40"/>
<path d="M113.825 102.174H113.766C115.387 100.908 116.588 99.1315 117.2 97.0991C117.811 95.0666 117.802 92.8816 117.172 90.8553C116.543 88.829 115.326 87.0648 113.694 85.8142C112.063 84.5636 110.1 83.8903 108.086 83.8903C106.073 83.8903 104.11 84.5636 102.479 85.8142C100.847 87.0648 99.63 88.829 99.0006 90.8553C98.3711 92.8816 98.3615 95.0666 98.9731 97.0991C99.5847 99.1315 100.786 100.908 102.407 102.174H102.347C98.1213 102.174 94.6954 105.803 94.6954 114.332V128.517H121.477V110.28C121.477 108.13 120.671 106.068 119.236 104.548C117.801 103.028 115.855 102.174 113.825 102.174ZM108.086 122.438L104.26 116.359L107.555 104.144C107.735 104.154 107.904 104.201 108.086 104.201C108.268 104.201 108.438 104.154 108.618 104.144L111.912 116.359L108.086 122.438ZM108.086 100.148C106.565 100.146 105.106 99.5052 104.03 98.3655C102.954 97.2258 102.349 95.6806 102.347 94.0689C102.354 93.377 102.473 92.6915 102.7 92.0426H113.473C113.7 92.6915 113.819 93.377 113.825 94.0689C113.824 95.6806 113.219 97.2258 112.143 98.3655C111.067 99.5052 109.608 100.146 108.086 100.148Z" fill="#EB9D40"/>
<path d="M47.4353 102.44C47.877 101.82 48.4343 101.303 49.0726 100.921C49.7108 100.539 50.4164 100.3 51.1456 100.219C51.8648 100.138 52.592 100.215 53.2818 100.446C53.9716 100.676 54.6093 101.054 55.1552 101.556L64.5193 109.225C64.5449 109.244 64.5686 109.266 64.5923 109.287C65.6909 110.315 66.3826 111.744 66.5291 113.289C66.6756 114.834 66.2661 116.38 65.3825 117.619C65.328 117.694 65.2587 117.75 65.2022 117.823C66.2805 118.27 67.4609 118.363 68.5898 118.09C69.7188 117.817 70.7441 117.191 71.5323 116.292L77.761 109.191C78.2018 108.331 78.3407 107.334 78.1531 106.375C77.9655 105.417 77.4636 104.56 76.7363 103.957L66.8111 95.02L66.2128 95.5223C65.4248 96.1902 64.4462 96.5548 63.437 96.5565C63.2245 96.5566 63.0122 96.5405 62.8019 96.5082C62.1888 96.4155 61.6002 96.1902 61.0727 95.8463C60.5452 95.5024 60.0902 95.0473 59.7358 94.5093C59.1651 93.6483 58.8566 92.6232 58.8515 91.5712C58.8464 90.5193 59.145 89.4908 59.7073 88.6238L56.7832 85.9908C56.5342 85.7666 56.2341 85.6155 55.9128 85.5525C55.5915 85.4896 55.2602 85.5169 54.952 85.6319L51.5977 86.8833C51.2948 86.9963 50.9698 87.0267 50.6529 86.9717C50.336 86.9167 50.0372 86.7781 49.7842 86.5685L43.6011 81.4496L35.3927 91.8507L47.2736 102.716C47.333 102.627 47.372 102.527 47.4353 102.44Z" fill="#EB9D40"/>
<path d="M53.9392 103.06C53.5808 102.731 53.162 102.483 52.7091 102.334C52.2561 102.184 51.7789 102.135 51.3073 102.19C50.8357 102.245 50.38 102.403 49.9687 102.653C49.5574 102.904 49.1994 103.242 48.9172 103.646C48.02 104.897 47.6024 106.461 47.748 108.025C47.8937 109.588 48.5918 111.036 49.7026 112.077L56.3683 117.291C56.9059 117.785 57.5341 118.156 58.2135 118.38C58.8929 118.605 59.6087 118.678 60.3161 118.595C61.0235 118.513 61.7071 118.276 62.324 117.9C62.941 117.525 63.4779 117.018 63.9012 116.412C64.4993 115.578 64.7777 114.535 64.6806 113.493C64.5836 112.45 64.1181 111.485 63.3776 110.791L53.9392 103.06Z" fill="#EB9D40"/>
<path d="M74.9362 81.852C74.3949 82.443 73.7866 82.9608 73.1252 83.3935C70.4503 84.536 67.5134 82.946 65.3434 85.2017C64.0326 86.5643 62.7803 87.9966 61.5005 89.3922C61.0193 89.9306 60.7323 90.6312 60.6897 91.3712C60.6472 92.1112 60.8518 92.8435 61.2678 93.4398C61.4775 93.75 61.7453 94.0109 62.0546 94.2063C62.3639 94.4016 62.708 94.5272 63.0653 94.5752C63.4225 94.6232 63.7853 94.5924 64.1308 94.485C64.4764 94.3775 64.7972 94.1956 65.0733 93.9506L67.5841 92.5107L77.1526 101.399L88.9565 88.0217L79.6586 77.858C79.5951 77.8666 75.2778 81.5623 74.9362 81.852Z" fill="#EB9D40"/>
<path d="M50.6966 54.555V28.2124L37.3057 32.2651V54.555H50.6966ZM41.1316 37.331H46.8706V40.3705H41.1316V37.331ZM41.1316 45.4364H46.8706V48.476H41.1316V45.4364Z" fill="#EB9D40"/>
<path d="M73.6526 54.555H87.0435V32.2651L73.6526 28.2124V54.555ZM77.4786 37.331H83.2175V40.3705H77.4786V37.331ZM77.4786 45.4364H83.2175V48.476H77.4786V45.4364Z" fill="#EB9D40"/>
<path d="M71.7395 54.555V18.0806L67.9136 16.0543L62.1746 9.97522L56.4356 16.0543L52.6096 18.0806V54.555H58.3486V46.4496H66.0006V54.555H71.7395ZM57.3921 22.6399H66.9571V25.6795H57.3921V22.6399ZM57.3921 30.7454H66.9571V33.7849H57.3921V30.7454ZM57.3921 41.8903V38.8508H66.9571V41.8903H57.3921Z" fill="#EB9D40"/>
</svg>
