<svg width="80" height="80" viewBox="0 0 80 80" fill="none" xmlns="http://www.w3.org/2000/svg">
<path fill-rule="evenodd" clip-rule="evenodd" d="M26.8278 8.2942C27.7699 9.3036 27.7153 10.8856 26.7059 11.8276L12.4202 25.161C11.9132 25.6342 11.2323 25.8756 10.5404 25.8273C9.84851 25.779 9.20775 25.4454 8.77135 24.9063L4.72371 19.9063C3.85498 18.8332 4.02068 17.259 5.09385 16.3902C6.16698 15.5215 7.74121 15.6872 8.60995 16.7603L10.9697 19.6754L23.2944 8.17236C24.3037 7.2303 25.8857 7.28483 26.8278 8.2942ZM37.5001 16.6667C37.5001 15.286 38.6194 14.1667 40.0001 14.1667H73.3334C74.7141 14.1667 75.8334 15.286 75.8334 16.6667C75.8334 18.0474 74.7141 19.1667 73.3334 19.1667H40.0001C38.6194 19.1667 37.5001 18.0474 37.5001 16.6667ZM26.8278 31.6275C27.7699 32.6369 27.7153 34.219 26.7059 35.161L12.4202 48.4943C11.9132 48.9677 11.2323 49.209 10.5404 49.1607C9.84851 49.1123 9.20775 48.7787 8.77135 48.2397L4.72371 43.2397C3.85498 42.1667 4.02068 40.5923 5.09385 39.7237C6.16698 38.8547 7.74121 39.0207 8.60995 40.0937L10.9697 43.0087L23.2944 31.5057C24.3037 30.5636 25.8857 30.6182 26.8278 31.6275ZM37.5001 40C37.5001 38.6193 38.6194 37.5 40.0001 37.5H73.3334C74.7141 37.5 75.8334 38.6193 75.8334 40C75.8334 41.3807 74.7141 42.5 73.3334 42.5H40.0001C38.6194 42.5 37.5001 41.3807 37.5001 40ZM26.8278 54.961C27.7699 55.9703 27.7153 57.5523 26.7059 58.4943L12.4202 71.8277C11.9132 72.301 11.2323 72.5423 10.5404 72.494C9.84851 72.4457 9.20775 72.112 8.77135 71.573L4.72371 66.573C3.85498 65.5 4.02068 63.9257 5.09385 63.057C6.16698 62.188 7.74121 62.354 8.60995 63.427L10.9697 66.342L23.2944 54.839C24.3037 53.897 25.8857 53.9517 26.8278 54.961ZM37.5001 63.3333C37.5001 61.9527 38.6194 60.8333 40.0001 60.8333H73.3334C74.7141 60.8333 75.8334 61.9527 75.8334 63.3333C75.8334 64.714 74.7141 65.8333 73.3334 65.8333H40.0001C38.6194 65.8333 37.5001 64.714 37.5001 63.3333Z" fill="#F5CF73"/>
</svg>
