<svg width="80" height="80" viewBox="0 0 80 80" fill="none" xmlns="http://www.w3.org/2000/svg">
<path d="M71.7442 26.6666C71.3378 26.6682 70.9367 26.577 70.5709 26.3999L39.7442 10.6666L8.91752 26.2933C7.54792 26.9413 5.91219 26.3562 5.26419 24.9866C4.61619 23.617 5.20125 21.9813 6.57085 21.3333L39.7442 4.90662L72.9175 21.3333C74.3901 21.6575 75.3218 23.1141 74.9975 24.5866C74.6733 26.0592 73.2167 26.9909 71.7442 26.6666ZM26.4109 53.3333H10.4109V69.3333H26.4109V53.3333ZM47.7442 53.3333H31.7442V69.3333H47.7442V53.3333ZM69.0775 53.3333H53.0775V69.3333H69.0775V53.3333ZM58.4109 32H42.4109V48H58.4109V32ZM37.0775 32H21.0775V48H37.0775V32Z" fill="#F5CF73"/>
</svg>
