<svg width="80" height="80" viewBox="0 0 80 80" fill="none" xmlns="http://www.w3.org/2000/svg">
<path d="M23.8991 11.0947C23.8991 5.3125 28.5869 0.625 34.3691 0.625C40.1512 0.625 44.8388 5.3125 44.8388 11.0947C44.8388 16.8769 40.1512 21.5644 34.3691 21.5644C28.5866 21.5647 23.8991 16.8769 23.8991 11.0947ZM71.9922 67.06L64.6084 67.0659V70.7553H62.1472V67.0659H49.8409V70.7553H47.3797V67.0659H39.9963V79.3662H71.9922V67.06ZM48.8547 54.7666V39.8794C48.8547 39.0872 49.3638 38.5497 50.1844 38.5497C50.9766 38.5497 51.5141 39.0588 51.5141 39.8794V57.2147H39.9963V64.6044L71.9922 64.5984V57.2147H60.7375L60.7372 37.22C60.7372 29.9487 54.7956 24.0356 47.5528 24.0356H44.8934L36.8297 36.0884L35.5991 26.6291L36.8297 24.0075H31.9078L33.1384 26.6291L31.9078 36.0884L24.2966 24.0359H21.1844C13.9131 24.0359 8 29.9775 8 37.2203V72.45C8 74.9972 10.0647 77.0619 12.6119 77.0619C15.1591 77.0619 17.2238 74.9972 17.2238 72.45V39.8797H17.195C17.195 39.0816 17.7119 38.5419 18.5428 38.55C19.2716 38.5569 19.8547 39.1653 19.8547 39.8941L19.8503 79.3662L37.535 79.375V54.7666H48.8547Z" fill="#F5CF73"/>
</svg>
