<svg width="40" height="40" viewBox="0 0 40 40" fill="none" xmlns="http://www.w3.org/2000/svg">
<path d="M36.6666 28.2001V33.2001C36.6685 33.6642 36.5734 34.1237 36.3875 34.549C36.2015 34.9743 35.9288 35.3561 35.5868 35.6699C35.2447 35.9836 34.8409 36.2226 34.4012 36.3713C33.9615 36.52 33.4956 36.5752 33.0333 36.5334C27.9047 35.9761 22.9783 34.2237 18.65 31.4167C14.623 28.8579 11.2089 25.4437 8.64997 21.4167C5.83327 17.0688 4.08037 12.1184 3.5333 6.96675C3.49165 6.50586 3.54643 6.04135 3.69414 5.60279C3.84185 5.16423 4.07925 4.76123 4.39125 4.41945C4.70324 4.07767 5.08298 3.8046 5.50629 3.61762C5.9296 3.43064 6.3872 3.33385 6.84997 3.33341H11.85C12.6588 3.32545 13.443 3.61188 14.0562 4.1393C14.6695 4.66672 15.0701 5.39916 15.1833 6.20008C15.3943 7.80019 15.7857 9.37129 16.35 10.8834C16.5742 11.48 16.6227 12.1283 16.4898 12.7515C16.3569 13.3748 16.0481 13.9469 15.6 14.4001L13.4833 16.5167C15.8559 20.6893 19.3107 24.1442 23.4833 26.5167L25.6 24.4001C26.0531 23.952 26.6252 23.6432 27.2485 23.5102C27.8718 23.3773 28.5201 23.4258 29.1166 23.6501C30.6288 24.2143 32.1999 24.6057 33.8 24.8167C34.6096 24.931 35.349 25.3388 35.8775 25.9626C36.4061 26.5864 36.6869 27.3827 36.6666 28.2001Z" stroke="#EB9D40" stroke-width="2" stroke-linecap="round" stroke-linejoin="round"/>
</svg>
